<svg xmlns="http://www.w3.org/2000/svg" width="43.194" height="36.878" viewBox="0 0 43.194 36.878">
  <g id="Group_482" data-name="Group 482" transform="translate(-83.688 -750)">
    <g id="Group_476" data-name="Group 476" transform="translate(33.254 558.615)">
      <path id="Path_71" data-name="Path 71" d="M50.434,202.329c.222-.285.433-.583.669-.852q4.258-4.867,8.531-9.715a1.142,1.142,0,0,1,.776-.36q12.487-.028,24.975-.016c1.519,0,3.037,0,4.556,0a4.021,4.021,0,0,1,3.685,4.191q0,14.245,0,28.49a4,4,0,0,1-3.72,4.2H54.258a3.888,3.888,0,0,1-3.738-3.332,1.325,1.325,0,0,0-.085-.212Zm1.784,1.334v.676q0,9.777,0,19.553c0,1.644.615,2.347,2.052,2.35,1.406,0,2.813,0,4.219,0q15.673,0,31.345,0c1.39,0,2.012-.71,2.013-2.288q0-13.212,0-26.424c0-.832.011-1.668-.058-2.493a1.548,1.548,0,0,0-1.367-1.561,15.458,15.458,0,0,0-1.852-.061q-13.479,0-26.958,0c-.122,0-.243.018-.391.029v.567c0,1.826-.005,3.651,0,5.477a4.064,4.064,0,0,1-.46,1.969,3.623,3.623,0,0,1-3.282,2.209C55.757,203.661,54.028,203.663,52.218,203.663Zm1.451-2.058c-.014-.011.007.02.028.02,1.363,0,2.728.049,4.09-.008,1.028-.043,1.609-.721,1.643-1.9.045-1.551.007-3.1,0-4.657,0-.021-.036-.041.009.007Z" transform="translate(0)" fill="#333"/>
      <path id="Path_72" data-name="Path 72" d="M355.86,244.06l1.005,1.463c.04-.055.072-.1.1-.138.516-.751,1.03-1.5,1.549-2.252a.856.856,0,1,1,1.417.96c-.4.583-.8,1.162-1.2,1.743-.249.362-.5.727-.749,1.086a.17.17,0,0,0,0,.233q.975,1.4,1.939,2.817a.857.857,0,1,1-1.405.979c-.3-.431-.6-.865-.893-1.3l-.753-1.1c-.039.052-.07.093-.1.134q-.771,1.12-1.542,2.24a.857.857,0,1,1-1.422-.955c.4-.582.8-1.161,1.2-1.742.252-.366.5-.733.756-1.1a.139.139,0,0,0,.007-.188c-.557-.8-1.11-1.611-1.667-2.415a.2.2,0,0,0-.135-.083c-.525-.005-1.05,0-1.576,0a.36.36,0,0,0-.056.012v.154c0,.808,0,1.617,0,2.425a.856.856,0,0,1-1.421.64.85.85,0,0,1-.292-.682q0-2.97,0-5.941c0-.3,0-.593,0-.889a.856.856,0,0,1,.884-.884c1.006,0,2.011,0,3.017,0a2.59,2.59,0,0,1,2.549,2.741,2.544,2.544,0,0,1-1.1,1.95ZM352.346,241v1.729h.14q.989,0,1.977,0a.867.867,0,1,0,0-1.733c-.664,0-1.327,0-1.991,0C352.435,241,352.4,241,352.346,241Z" transform="translate(-274.813 -43.849)" fill="#333"/>
      <rect id="Rectangle_92" data-name="Rectangle 92" width="12.966" height="2.415" rx="1.208" transform="translate(56.558 212.285)" fill="#333"/>
      <rect id="Rectangle_93" data-name="Rectangle 93" width="31.563" height="2.415" rx="1.208" transform="translate(56.558 221.017)" fill="#333"/>
      <rect id="Rectangle_94" data-name="Rectangle 94" width="31.563" height="2.415" rx="1.208" transform="translate(56.558 216.651)" fill="#333"/>
    </g>
  </g>
</svg>
